<?xml version="1.0" encoding="UTF-8"?>
<svg id="Layer_1" data-name="Layer 1" xmlns="http://www.w3.org/2000/svg" viewBox="0 0 52 52">
  <defs>
    <style>
      .cls-1 {
        fill: #fff;
      }
    </style>
  </defs>
  <path class="cls-1" d="M52,8c0-4.41-3.59-8-8-8h-6c-1.1,0-2,.9-2,2s.9,2,2,2h6c2.21,0,4,1.79,4,4v6c0,1.1.9,2,2,2s2-.9,2-2v-6Z"/>
  <path class="cls-1" d="M52,44v-6c0-1.1-.9-2-2-2s-2,.9-2,2v6c0,2.21-1.79,4-4,4h-6c-1.1,0-2,.9-2,2s.9,2,2,2h6c4.41,0,8-3.59,8-8Z"/>
  <path class="cls-1" d="M0,44c0,4.41,3.59,8,8,8h6c1.1,0,2-.9,2-2s-.9-2-2-2h-6c-2.21,0-4-1.79-4-4v-6c0-1.1-.9-2-2-2s-2,.9-2,2v6Z"/>
  <path class="cls-1" d="M2,16c1.1,0,2-.9,2-2v-6c0-2.21,1.79-4,4-4h6c1.1,0,2-.9,2-2s-.9-2-2-2h-6C3.59,0,0,3.59,0,8v6c0,1.1.9,2,2,2Z"/>
</svg>