<?xml version="1.0" encoding="UTF-8"?>
<svg id="Layer_1" data-name="Layer 1" xmlns="http://www.w3.org/2000/svg" viewBox="0 0 83.78 83.78">
  <defs>
    <style>
      .cls-1 {
        fill: #f7f7f7;
        fill-rule: evenodd;
      }
    </style>
  </defs>
  <path class="cls-1" d="M41.89,0c11.57,0,22.04,4.69,29.62,12.27,7.58,7.58,12.27,18.05,12.27,29.62s-4.69,22.04-12.27,29.62c-7.58,7.58-18.05,12.27-29.62,12.27s-22.04-4.69-29.62-12.27C4.69,63.93,0,53.46,0,41.89S4.69,19.85,12.27,12.27C19.85,4.69,30.32,0,41.89,0h0ZM61.24,43.62c.3-.17.57-.42.75-.74.55-.95.22-2.17-.73-2.71l-14.4-8.31-14.23-8.22c-.33-.23-.72-.37-1.15-.37-1.1,0-1.99.89-1.99,2v33.25h0c0,.34.08.68.26.99.55.95,1.76,1.28,2.71.73l14.4-8.31,14.38-8.3Z"/>
</svg>